<?xml version="1.0" encoding="UTF-8"?>
<svg xmlns:xlink="http://www.w3.org/1999/xlink" width="96px" height="32px" viewBox="0 0 96 32" version="1.1"
     xmlns="http://www.w3.org/2000/svg">
    <!-- Generator: Sketch 58 (84663) - https://sketch.com -->
    <title>logo/dark/esky/eu</title>
    <desc>Created with Sketch.</desc>
    <g id="logo/dark/esky/eu" stroke="none" stroke-width="1" fill="none" fill-rule="evenodd">
        <g id="atoms/dark/esky/eu" fill-rule="nonzero">
            <path d="M40.6318782,18.2659898 L40.6318782,18.2075127 C40.5392893,14.9717766 38.5949239,13.1622335 34.1344162,12.1535025 C29.9987817,11.2211168 29.2873096,10.595736 29.2467005,9.19228426 L29.2467005,9.13218274 C29.2060914,7.76121827 30.4714721,6.80121827 32.3947208,6.74598985 C34.2270051,6.69401015 36.0544162,7.32913706 37.9922843,8.69522843 L38.1352284,8.79431472 L40.199797,5.7080203 L40.0714721,5.61218274 C37.9844439,3.99884979 35.4124842,3.14000306 32.7748223,3.17563452 C32.6351269,3.17563452 32.4938071,3.17563452 32.3508629,3.17563452 C28.0739086,3.29746193 25.1614213,5.93705584 25.2653807,9.57888325 L25.2653807,9.63898477 C25.3206091,11.5394924 25.9654822,12.9445685 27.235736,13.9305584 C28.3646701,14.8093401 30.0377665,15.4038579 32.5035533,15.8050761 C35.1805076,16.2404061 36.6180711,17.2361421 36.6586802,18.6834518 L36.6586802,18.7419289 C36.7009137,20.226599 35.3494416,21.2255838 33.2166497,21.2856853 C32.810994,21.2993282 32.4048845,21.2830403 32.0016244,21.2369543 C29.6495431,20.7805076 29.0030457,19.9926904 27.4387817,18.0873096 L27.3039594,17.9248731 L24.4369543,20.2769543 L24.5750254,20.4393909 C25.9654822,22.1336041 28.1811168,24.4272081 31.3518782,24.7764467 C31.8684677,24.8362134 32.3879884,24.8671243 32.9080203,24.8690355 L33.2328934,24.8690355 C37.8428426,24.7374619 40.7504569,22.1498477 40.6383756,18.2773604"
                  id="Shape" fill="#FFFFFF"></path>
            <path d="M68.8925888,7.98862944 L64.9746193,19.1675127 L61.0404061,8.10071066 L60.999797,7.96263959 L52.5173604,7.96263959 L46.6550254,14.7070051 L46.6550254,4.82923858 L42.4073096,4.82923858 L42.4073096,24.8527919 L46.6550254,24.8527919 L46.6550254,16.4060914 L52.7074112,24.7829442 L52.7577665,24.8479188 L57.6552284,24.8479188 L50.8767513,15.5273096 L56.8105584,8.7715736 L62.7719797,24.657868 L62.7947208,24.7212183 C61.9094416,26.5827411 60.8097462,28.2103553 57.7851777,28.2103553 L57.6227411,28.2103553 L57.6227411,31.5711675 L57.7851777,31.5711675 C64.4190863,31.5711675 66.0418274,27.2454822 67.6109645,23.0611168 C67.7587817,22.6696447 67.9049746,22.2781726 68.057665,21.8867005 L73.0688325,7.98538071 L68.8925888,7.98862944 Z"
                  id="Shape" fill="#FFFFFF"></path>
            <path d="M19.3396954,4.0706599 C17.9529571,3.56543375 16.4882906,3.30757766 15.0123858,3.30883249 L15.0123858,-5.91287223e-06 C16.8751149,-0.00113710804 18.7235682,0.324898824 20.4735025,0.963248731 L19.3396954,4.0706599 Z"
                  id="Shape" fill="#E2076A"></path>
            <path d="M3.1106599,11.6499492 L0,10.5226396 C2.29796052,4.21419651 8.2903277,0.0116897886 15.004264,0 L15.0140102,3.30883249 C9.68870296,3.31490787 4.9341781,6.64657888 3.1106599,11.6499492 L3.1106599,11.6499492 Z"
                  id="Shape" fill="#00D2E8"></path>
            <path d="M23.4996954,20.2477157 L20.8552284,17.8680203 C18.6395939,20.3224365 17.0753299,21.288934 15.1699492,21.2986802 C13.9062574,21.3064206 12.682256,20.8576586 11.7230457,20.0349239 L22.9181726,13.9857868 L22.4536041,12.5709645 C22.3853807,12.359797 20.6960406,7.39411168 15.2722843,7.10497462 C12.9898356,6.9865314 10.7607154,7.82134839 9.11756345,9.40994924 C7.31972982,11.1238014 6.30091927,13.4982873 6.29766497,15.982132 C6.28879592,16.8753315 6.42259508,17.7642185 6.69401015,18.6152284 L4.33543147,19.8789848 L6.0280203,23.0140102 L8.41096447,21.7470051 C10.4953606,24.1836458 13.730751,25.3084592 16.8771574,24.6903553 L16.8771574,24.6903553 C18.4329601,24.3888228 19.8788896,23.6739939 21.0631472,22.6209137 C21.917806,21.8729434 22.7311879,21.0790827 23.4996954,20.2428426 M9.85502538,15.9772589 C9.85834617,14.4717601 10.4775604,13.0331876 11.568731,11.9959391 C12.444596,11.1445467 13.6155065,10.6644269 14.8369543,10.6558376 C14.9181726,10.6558376 14.9993909,10.6558376 15.0822335,10.6558376 C16.3765009,10.7175003 17.5745847,11.3573928 18.3455838,12.3987817 L9.94598985,16.9405076 C9.8884273,16.6243021 9.85961255,16.3035341 9.85989848,15.982132"
                  id="Shape" fill="#FFFFFF"></path>
            <path d="M15.004264,31.9057974 C13.1474463,31.907929 11.3046172,31.5846642 9.55939086,30.9506599 L10.6883249,27.8416244 C14.1924471,29.1083896 18.0763843,28.7697777 21.3084264,26.915736 L22.9604061,29.7827411 C20.5398199,31.1744164 17.7963952,31.9064817 15.004264,31.9057974 Z"
                  id="Shape" fill="#0775E2"></path>

        </g>
    </g>
</svg>