<svg xmlns="http://www.w3.org/2000/svg" width="40" height="40">
    <g fill="none" fill-rule="evenodd">
        <ellipse cx="20" cy="20.13" fill="#FFF" rx="18" ry="18.13"/>
        <path fill="#1877F2"
              d="M38 20.11c0-10.003-8.06-18.111-18.001-18.111-9.942 0-18.001 8.108-18.001 18.11 0 9.04 6.583 16.532 15.188 17.891V25.344h-4.57V20.11h4.57v-3.99c0-4.539 2.688-7.046 6.8-7.046 1.969 0 4.029.354 4.029.354v4.457h-2.27c-2.236 0-2.933 1.396-2.933 2.828v3.397h4.992l-.798 5.235h-4.194V38C31.417 36.641 38 29.149 38 20.11"/>
    </g>
</svg>