<svg xmlns="http://www.w3.org/2000/svg" width="40" height="40">
    <g fill="none" fill-rule="evenodd">
        <path d="M2 2h36v36H2z"/>
        <path fill="#FBBC05"
              d="M9.758 20c0-1.17.194-2.29.541-3.342l-6.066-4.632A17.99 17.99 0 0 0 2.384 20c0 2.866.666 5.57 1.846 7.968l6.063-4.641A10.648 10.648 0 0 1 9.758 20"/>
        <path fill="#EA4335"
              d="M20.41 9.364c2.54 0 4.834.9 6.636 2.372L32.29 6.5C29.095 3.718 24.998 2 20.41 2A17.972 17.972 0 0 0 4.233 12.026l6.066 4.632a10.623 10.623 0 0 1 10.11-7.294"/>
        <path fill="#34A853"
              d="M20.41 30.636a10.623 10.623 0 0 1-10.11-7.294l-6.067 4.631A17.971 17.971 0 0 0 20.41 38c4.396 0 8.594-1.561 11.744-4.486l-5.758-4.452c-1.625 1.024-3.671 1.574-5.986 1.574"/>
        <path fill="#4285F4"
              d="M37.616 20c0-1.064-.164-2.21-.41-3.273H20.41v6.955h9.668c-.483 2.371-1.8 4.194-3.682 5.38l5.758 4.452c3.31-3.071 5.462-7.647 5.462-13.514"/>
    </g>
</svg>