<svg xmlns="http://www.w3.org/2000/svg" width="352" height="208">
    <g fill="none" fill-rule="evenodd">
        <path fill="#0775E2"
              d="M177.743 103.547c5.777 0 10.46-4.683 10.46-10.46 0-5.776-4.683-10.459-10.46-10.459-5.776 0-10.46 4.683-10.46 10.46 0 5.776 4.684 10.46 10.46 10.46zm6.442 7.906 1.061.44c3.559 1.478 7.457 5.636 8.707 9.285l3.589 10.477c.619 1.806-.469 3.27-2.375 3.27H160.32c-1.93 0-2.993-1.463-2.374-3.27l3.588-10.477c1.25-3.65 5.154-7.809 8.706-9.284l1.061-.441c3.558-1.478 9.332-1.476 12.885 0zm-11.547 3.22-1.062.44c-2.63 1.093-5.818 4.492-6.744 7.195l-3.128 9.131h32.079l-3.128-9.13c-.927-2.705-4.111-6.101-6.746-7.196l-1.061-.44c-2.7-1.121-7.51-1.122-10.21 0zm5.105-35.531c7.702 0 13.946 6.244 13.946 13.946s-6.244 13.946-13.946 13.946-13.946-6.244-13.946-13.946 6.244-13.946 13.946-13.946zM66.96 151.938l5.809 11c.13.248.204.471.226.67l5.873-.436c3.174-.235 6.267 1.993 7.039 5.081l.033.134a2 2 0 0 1 0 .97l-.033.133c-.771 3.084-3.86 5.317-7.039 5.081l-5.873-.436a1.917 1.917 0 0 1-.226.67l-5.81 11a2 2 0 0 1-2.598.886l-2.191-1a2 2 0 0 1-1.124-2.247l2.199-10.03-6.189-.459-3.3 5.28a4.57 4.57 0 0 1-.69.886c-.627.603-1.392.95-2.418.516-.994-.42-1.285-1.172-1.321-2.021a4.664 4.664 0 0 1 .107-1.112l1.526-7.632-1.526-7.632a4.637 4.637 0 0 1-.107-1.117c.039-.854.338-1.612 1.343-2.024 1.02-.418 1.776-.072 2.398.526.246.237.466.528.688.883l3.3 5.28 6.188-.459-2.198-10.03a2 2 0 0 1 1.124-2.247l2.19-1a2 2 0 0 1 2.6.886zm-1.643 21.647L63 183.872l2.191 1 5.764-10.888-2.477-.183-3.16-.216zm-13.946-12.869 1.433 7.177a1.02 1.02 0 0 1 .208-.021h2.976c.559 0 1.012.463 1.012 1 0 .552-.461 1-1.012 1h-2.976a.998.998 0 0 1-.207-.022l-1.41 7.046c-.2.998.034 1.188.525.491l.14-.212 3.94-6.303 23.016 1.705c2.212.163 4.417-1.437 4.95-3.572l.034-.133-.033-.133c-.537-2.148-2.75-3.735-4.95-3.572L56 166.872l-3.94-6.304c-.556-.89-.857-.82-.69.148zm26.922 5.449a1 1 0 0 1 1.414 0 5.2 5.2 0 0 1 .625.777c.412.618.668 1.258.668 1.93 0 .671-.256 1.311-.668 1.93a5.253 5.253 0 0 1-.625.777 1 1 0 1 1-1.414-1.414 3.35 3.35 0 0 0 .375-.473c.213-.32.332-.617.332-.82 0-.204-.119-.501-.332-.82a3.35 3.35 0 0 0-.375-.473 1 1 0 0 1 0-1.414zM65.19 152.872l-2.191 1 2.242 10.304 2.498-.18 3.216-.239-5.765-10.885zM292.858 46.514l12.515 7.04c1.59.894 2.762 2.909 2.762 4.728v19.99a3.999 3.999 0 0 1-4.002 4.005h-27.996a4.012 4.012 0 0 1-4.002-4.005v-19.99c0-1.832 1.163-3.829 2.762-4.728l12.515-7.04c1.574-.885 3.869-.887 5.446 0zm-4.466 1.743-12.514 7.04c-.971.546-1.743 1.878-1.743 2.985v19.99c0 1.094.896 2.005 2.002 2.005h27.996a1.999 1.999 0 0 0 2.002-2.005v-19.99c0-1.093-.78-2.444-1.743-2.985l-12.514-7.04c-.971-.546-2.523-.541-3.486 0zm6.743 10.02a1 1 0 0 1 .993.883l.007.117v16a1 1 0 0 1-1.993.117l-.007-.117v-7.001l-8 .001v7a1 1 0 0 1-.883.993l-.117.007a1 1 0 0 1-.993-.883l-.007-.117v-16a1 1 0 0 1 1.993-.117l.007.117v7l8-.001v-6.999a1 1 0 0 1 .884-.993l.116-.007zM281.264 187.23a2 2 0 0 1-2.02 2h-3.962a2.004 2.004 0 0 1-2.018-2v-18c0-.728.194-1.41.533-1.999h-.536a1.994 1.994 0 0 1-1.997-2c0-1.105.885-2 1.997-2h2.005a2 2 0 0 1 .768.152l.445-2.229c.436-2.181 2.583-3.923 4.802-3.923h15.965c2.214 0 4.369 1.756 4.802 3.923l.445 2.228c.236-.097.495-.151.768-.151h2.005c1.103 0 1.998.887 1.998 2 0 1.104-.886 2-1.998 2h-.532a4 4 0 0 1 .53 1.999v18.001a2 2 0 0 1-2.02 2h-3.962a2.004 2.004 0 0 1-2.018-2v-2h-16v2zm18-6.002v6.002l4 .002-.001-6.002-4-.002zm-24 0v6.002h4l-.001-6-4-.002zm19.333-5.998H283.93l-.034.101c-.35 1.049-1.52 1.899-2.632 1.899h-6v2h3.98c1.116 0 2.02.887 2.02 2v2h.38l.388-2.036c.206-1.079 1.267-1.964 2.369-1.964h9.725c1.095 0 2.162.88 2.369 1.964l.388 2.036h.38v-2c0-1.105.887-2 2.02-2h3.98v-2h-6c-1.112 0-2.283-.85-2.632-1.899l-.034-.101zm-.47 6H284.4c-.138 0-.378.199-.404.339l-.317 1.66h11.167l-.317-1.66c-.026-.14-.267-.34-.404-.34zm9.137-9.64-7.363 1.228.627 1.88c.079.236.488.532.735.532h6v-3.64zm-28 0v3.64h6c.248 0 .657-.296.735-.531l.627-1.881-7.362-1.227zm26.011-4.36h-24.023a1.996 1.996 0 0 0-1.988 1.999v.334l8.018 1.336c1.094.183 1.703 1.165 1.349 2.23l-.034.1h9.333l-.034-.1c-.354-1.065.255-2.047 1.35-2.23l8.018-1.336v-.334c0-1.114-.885-2-1.989-2zm-4.029-8h-15.965c-1.273 0-2.593 1.076-2.841 2.316l-.737 3.684 13.56-.001.005-.199a4 4 0 0 1 7.996.199h1.56l-.737-3.683c-.246-1.23-1.577-2.316-2.84-2.316zm-1.982 4a2 2 0 0 0-2 1.999h4l-.006-.149a2 2 0 0 0-1.994-1.85zM88.376 22.4l3.466 2.6h5.334a2 2 0 0 1 1.857 1.257l1.791 4.48 3.552 2.663a2 2 0 0 1 .657 2.343L103.33 40l1.703 4.257a2 2 0 0 1-.657 2.343l-3.552 2.664-1.791 4.479A2 2 0 0 1 97.176 55h-5.334l-3.466 2.6a2 2 0 0 1-2.4 0L82.509 55h-5.333a2 2 0 0 1-1.857-1.257l-1.792-4.48-3.551-2.663a2 2 0 0 1-.657-2.343L71.022 40l-1.703-4.257a2 2 0 0 1 .657-2.343l3.551-2.664 1.792-4.479A2 2 0 0 1 77.176 25h5.333l3.467-2.6a2 2 0 0 1 2.4 0zm-1.2 1.6-4 3h-6l-2 5-4 3 2 5-2 5 4 3 2 5h6l4 3 4-3h6l2-5 4-3-2-5 2-5-4-3-2-5h-6l-4-3zm6 16a4 4 0 1 1 0 8 4 4 0 0 1 0-8zm-1.446-6.832a1 1 0 0 1 .337 1.286l-.06.1-8 12a1 1 0 0 1-1.722-1.008l.059-.1 8-12a1 1 0 0 1 1.386-.278zM93.176 42a2 2 0 1 0 0 4 2 2 0 0 0 0-4zm-12-10a4 4 0 1 1 0 8 4 4 0 0 1 0-8zm0 2a2 2 0 1 0 0 4 2 2 0 0 0 0-4z"/>
        <path fill="#0775E2" fill-opacity=".2" fill-rule="nonzero"
              d="M119.345 30.331c2.92 0 5.36 2.05 5.96 4.79h19.6l26.966 26.965a45.755 45.755 0 0 1 5.872-.377c15.9 0 29.886 8.187 37.976 20.574l20.59-20.592h9.679a6.101 6.101 0 1 1-.01 3.486h-8.224l-20.19 20.191a45.122 45.122 0 0 1 5.504 21.666c0 13.22-5.66 25.117-14.688 33.402l28.44 28.438h8.305a6.101 6.101 0 1 1-.027 3.488l-9.723-.001-29.66-29.661a45.13 45.13 0 0 1-27.972 9.658c-11.889 0-22.709-4.577-30.793-12.066l-27.755 27.755-13.178.001a6.101 6.101 0 1 1 0-3.488h11.734l26.734-26.734c-7.489-8.084-12.066-18.904-12.066-30.792 0-21.575 15.074-39.628 35.264-44.204L143.46 38.608h-18.413a6.104 6.104 0 0 1-11.804-2.176 6.101 6.101 0 0 1 6.102-6.1zm131.614 137.716a2.615 2.615 0 1 0 0 5.23 2.615 2.615 0 0 0 0-5.23zm-150.79-4.358a2.615 2.615 0 1 0 0 5.23 2.615 2.615 0 0 0 0-5.23zm77.574-98.493c-23.106 0-41.838 18.731-41.838 41.838 0 23.106 18.732 41.838 41.838 41.838 23.107 0 41.838-18.732 41.838-41.838 0-23.107-18.731-41.838-41.838-41.838zm74.088-4.358a2.615 2.615 0 1 0 0 5.23 2.615 2.615 0 0 0 0-5.23zm-132.486-27.02a2.615 2.615 0 1 0 0 5.23 2.615 2.615 0 0 0 0-5.23z"/>
        <path stroke="#0775E2" stroke-linecap="round" stroke-opacity=".2" stroke-width="4"
              d="M149.325 56.004c-17.885 9.981-29.98 29.093-29.98 51.03 0 12.084 3.67 23.312 9.957 32.628m96.183 1.012c6.713-9.51 10.657-21.115 10.657-33.64 0-8.731-1.916-17.015-5.35-24.453m-87.237 71.8c13.742 9.91 31.662 13.789 49.303 9.062m22.759-100.869c-11.923-10.138-27.744-15.352-43.973-13.628"/>
    </g>
</svg>